<svg width="97" height="97" viewBox="0 0 97 97" fill="none" xmlns="http://www.w3.org/2000/svg">
<rect width="97" height="97" rx="20" fill="#FAF190"/>
<path fill-rule="evenodd" clip-rule="evenodd" d="M47.146 20.031C45.8492 20.3126 44.7844 20.9172 43.702 21.9868C41.7238 23.9416 41.0534 26.7821 41.9613 29.3625L42.241 30.1573L41.0912 30.4231C33.8369 32.0994 27.5114 35.9878 22.6905 41.7346C18.124 47.178 15.4003 54.2689 15.0243 61.6933L14.9249 63.6538L14.0803 64.0644C12.9641 64.607 11.5268 66.061 10.9396 67.2416C9.55374 70.0279 10.1019 73.3099 12.3191 75.5009C13.4236 76.5923 14.4643 77.1734 15.8338 77.4634C17.3684 77.7883 80.1671 77.7883 81.7017 77.4634C83.0713 77.1734 84.1119 76.5923 85.2165 75.5009C87.4336 73.3099 87.9818 70.0279 86.596 67.2416C85.9941 66.0316 84.5683 64.6004 83.4323 64.066L82.5648 63.6578L82.5646 62.7203C82.5645 61.1805 82.2761 58.611 81.8683 56.516C80.874 51.4063 78.4331 46.1857 75.1059 42.0528C73.7576 40.3781 70.9971 37.6825 69.3622 36.4439C65.5781 33.5775 61.1367 31.5073 56.4444 30.4231L55.2945 30.1573L55.5742 29.3625C56.4821 26.7821 55.8117 23.9416 53.8335 21.9868C52.729 20.8954 51.6883 20.3143 50.3188 20.0243C49.0772 19.7615 48.3815 19.763 47.146 20.031ZM50.1735 25.1225C51.6434 26.2424 51.4101 28.4257 49.7357 29.2195C48.1262 29.9825 46.1918 28.5772 46.3932 26.7914C46.5987 24.9704 48.7358 24.0268 50.1735 25.1225ZM52.3435 34.5019C63.4521 35.9289 72.7169 43.4878 76.2099 53.9739C77.1183 56.7012 77.7262 60.0711 77.7341 62.4231L77.7366 63.2145H48.7678H19.7989L19.8015 62.4231C19.8169 57.7954 21.5666 52.0427 24.2671 47.7424C30.1385 38.3925 41.3759 33.0931 52.3435 34.5019ZM47.7795 39.3088C46.3271 39.9407 45.916 41.8834 46.9786 43.0926C47.5339 43.7243 47.9661 43.8464 50.4084 44.0609C55.0834 44.4715 58.6688 46.1013 62.1597 49.4024C63.7857 50.9401 64.4375 51.278 65.4209 51.0938C66.8579 50.8245 67.7741 48.9917 67.1115 47.7119C66.7603 47.0331 63.875 44.3659 62.4193 43.374C59.0322 41.0664 55.1023 39.6397 51.0457 39.2454C49.0956 39.0557 48.3267 39.0707 47.7795 39.3088ZM81.1548 68.2854C81.4418 68.4214 81.8594 68.7723 82.0829 69.065C82.6634 69.8253 82.6634 71.0743 82.0829 71.8347C81.2277 72.9549 84.2561 72.8616 48.7678 72.8616C13.2794 72.8616 16.3079 72.9549 15.4527 71.8347C14.8731 71.0757 14.8722 69.8252 15.4506 69.0677C16.303 67.9511 13.2471 68.0453 48.745 68.0415C77.9975 68.0384 80.6764 68.0586 81.1548 68.2854Z" fill="#293030"/>
</svg>
